<?xml version="1.0" encoding="UTF-8" standalone="no"?>
<!DOCTYPE svg PUBLIC "-//W3C//DTD SVG 1.1//EN" "http://www.w3.org/Graphics/SVG/1.1/DTD/svg11.dtd">
<svg width="100%" height="100%" viewBox="0 0 89 89" version="1.1" xmlns="http://www.w3.org/2000/svg" xmlns:xlink="http://www.w3.org/1999/xlink" xml:space="preserve" xmlns:serif="http://www.serif.com/" style="fill-rule:evenodd;clip-rule:evenodd;stroke-linejoin:round;stroke-miterlimit:2;">
    <g transform="matrix(5.55556,0,0,5.55556,0,0)">
        <path d="M1.488,9.388L7.134,14.898C7.437,15.22 8,15.706 8,15.706L8.866,14.898L14.512,9.388C15.462,8.503 16,7.262 16,5.966L16,5.784C16,3.6 14.422,1.737 12.269,1.378C10.844,1.141 9.394,1.606 8.375,2.625L8,3L7.625,2.625C6.606,1.606 5.156,1.141 3.731,1.378C1.578,1.738 0,3.6 0,5.784L0,5.966C0,7.263 0.538,8.503 1.488,9.388Z" style="fill:url(#_Linear1);fill-rule:nonzero;"/>
    </g>
    <defs>
        <linearGradient id="_Linear1" x1="0" y1="0" x2="1" y2="0" gradientUnits="userSpaceOnUse" gradientTransform="matrix(4.89859e-16,-8,8,4.89859e-16,16,13)"><stop offset="0" style="stop-color:rgb(255,121,218);stop-opacity:1"/><stop offset="1" style="stop-color:rgb(147,86,220);stop-opacity:1"/></linearGradient>
    </defs>
</svg>
